# xmcd
#
# Track frame offsets:
#	150
#	11862
#	24847
#	36402
#	47860
#	58892
#	72552
#	87800
#	100222
#	113395
#
# Disc length: 1709
#
# Revision: 1
# Processed by: cddbd v1.5.1PL0 Copyright (c) Steve Scherf et al.
# Submitted via: CDex 1.51
# Normalized: r0:DSETVAR1,TDELIM( - )
#
DISCID=8106ab0a
DTITLE=Various Artist - le grandi trombe del Jazz
DYEAR=2002
DGENRE=Jazz
TTITLE0=Miles Davis - Budo
TTITLE1=Wynton Marsalis - Blakey's Theme
TTITLE2=Dizzy Gillespie - Tin Tin Deco
TTITLE3=Chet Baker - Street of dreams
TTITLE4=Fats Navarro - Eb Pob
TTITLE5=Shorty Rogers - Over the rainbow
TTITLE6=Louis Armstrong - La vie en rose
TTITLE7=Cootie Williams - Caravan
TTITLE8=Roy Eldridge - School days
TTITLE9=Luois Armstrong - when the Saints go marching
EXTD=YEAR: 2002
EXTT0=
EXTT1=
EXTT2=
EXTT3=
EXTT4=
EXTT5=
EXTT6=
EXTT7=
EXTT8=
EXTT9=
PLAYORDER=
